<svg width="32" height="32" viewBox="0 0 32 32" fill="none" xmlns="http://www.w3.org/2000/svg">
<path d="M13.141 9.02929C13.2557 9.0301 13.3705 9.03072 13.4852 9.03116C13.7852 9.03281 14.0852 9.03708 14.3853 9.04192C14.6922 9.04639 14.9991 9.04837 15.306 9.05056C15.9068 9.05521 16.5076 9.06263 17.1085 9.07183C16.7423 10.207 16.2397 11.0147 15.7645 11.6592C15.1232 12.4583 14.461 12.4718 13.7772 12.4897C13.4612 12.4921 13.1453 12.479 12.8293 12.4615C12.7916 12.4595 12.754 12.4575 12.7151 12.4554C12.5359 12.4451 12.3568 12.4313 12.1777 12.4102C12.1287 12.4056 12.1287 12.4056 12.0788 12.401C11.9915 12.3929 11.9042 12.3825 11.8168 12.3719C11.6575 12.388 11.6575 12.388 11.5027 12.6178C11.354 12.8814 11.2726 13.1351 11.1657 13.5337C11.0466 14.016 10.9336 14.5102 10.821 15.0062C10.5508 16.1953 10.2807 17.3825 9.92773 18.3641C9.92773 18.5079 9.92773 18.6516 9.92773 18.7997C11.3909 18.7997 12.854 18.7997 14.3615 18.7997C13.9321 17.9373 13.5027 17.0748 13.0603 16.1863C12.9012 15.8509 12.7422 15.5155 12.5783 15.1699C12.5783 15.122 12.5783 15.0741 12.5783 15.0247C13.7234 15.0247 14.8685 15.0247 16.0482 15.0247C15.837 16.1911 15.6228 17.3469 15.4004 18.4934C15.3461 18.7742 15.2921 19.0557 15.2381 19.3371C15.2029 19.5189 15.1676 19.7007 15.1324 19.8824C15.0855 20.1249 15.0855 20.1249 15.0378 20.3723C14.9337 20.8607 14.8329 21.2859 14.6988 21.7036C14.5529 21.9344 14.4295 22.1103 14.2664 22.1794C14.1616 22.1964 14.0577 22.1997 13.9527 22.1978C13.9132 22.1988 13.8737 22.1998 13.8331 22.2008C13.7033 22.2035 13.5736 22.2029 13.4439 22.2021C13.353 22.2028 13.262 22.2035 13.1711 22.2044C12.9806 22.2057 12.7902 22.2053 12.5997 22.2039C12.3571 22.2022 12.1146 22.2052 11.872 22.2094C11.6841 22.2121 11.4963 22.212 11.3084 22.2112C11.219 22.2112 11.1297 22.212 11.0404 22.2139C10.5742 22.222 10.1596 22.1815 9.715 21.7236C9.48404 21.4173 9.30749 21.0005 9.13142 20.4632C9.04124 20.1577 8.9695 19.8505 8.90966 19.4837C8.86066 19.0264 8.85797 18.653 8.86147 18.1736C8.86233 18.0184 8.8632 17.8633 8.8641 17.7034C8.86522 17.586 8.86634 17.4687 8.86749 17.3478C9.97398 11.9502 9.97398 11.9502 10.5783 10.61C10.9436 9.90841 11.3244 9.45054 11.7454 9.16476C12.2024 8.9253 12.6791 9.01962 13.141 9.02929Z" fill="#D73F37"/>
<path d="M18.6506 9.07156C19.1575 9.05806 19.6644 9.04776 20.1714 9.04147C20.4068 9.03845 20.6422 9.03435 20.8776 9.02775C21.1051 9.02141 21.3326 9.01796 21.5601 9.01646C21.6466 9.01539 21.7331 9.01331 21.8196 9.01016C22.5807 8.98355 22.5807 8.98355 22.8915 9.34394C23.0233 9.53074 23.1105 9.71612 23.2259 9.99716C23.3332 10.4089 23.408 10.7591 23.4698 11.2494C23.4909 11.7213 23.4909 11.7213 23.4698 12.2658C23.3833 13.1526 23.2488 13.9572 23.0721 14.7114C22.8502 15.5368 22.5835 16.1585 22.2861 16.7214C21.9188 17.3241 21.5184 17.8006 21.1014 17.9704C20.851 18.0351 20.6005 18.0331 20.3494 18.031C20.2705 18.0329 20.1917 18.0351 20.1128 18.0376C19.9081 18.0433 19.7034 18.0449 19.4987 18.0455C19.2886 18.0468 19.0786 18.0523 18.8686 18.0573C18.4586 18.0666 18.0485 18.0715 17.6385 18.0735C17.6005 18.2091 17.5625 18.3448 17.5233 18.4846C17.502 18.5609 17.4806 18.6372 17.4586 18.7158C17.3734 19.0351 17.3053 19.3748 17.237 19.7285C17.2121 19.856 17.1873 19.9835 17.1617 20.1149C17.1159 20.3531 17.1159 20.3531 17.0692 20.5962C16.9708 21.1053 16.8724 21.6144 16.7711 22.1389C16.3417 22.1389 15.9123 22.1389 15.4698 22.1389C15.5112 21.6404 15.5509 21.345 15.634 20.911C15.6577 20.7864 15.6814 20.6618 15.7059 20.5335C15.7314 20.4015 15.7568 20.2694 15.7831 20.1334C15.8092 19.9972 15.8352 19.8609 15.8621 19.7206C16.0456 18.7645 16.2323 17.8145 16.4226 16.8705C16.5187 16.3922 16.6121 15.9094 16.7055 15.4263C16.7358 15.2695 16.7662 15.1126 16.7974 14.951C16.8205 14.8315 16.8436 14.712 16.8674 14.5889C16.9547 14.5886 16.9547 14.5886 17.0438 14.5882C17.5933 14.5858 18.1428 14.5796 18.6923 14.5697C18.9748 14.5647 19.2573 14.5611 19.5398 14.5605C19.8126 14.5599 20.0854 14.5557 20.3582 14.5492C20.462 14.5473 20.5659 14.5467 20.6698 14.5473C20.8158 14.548 20.9616 14.5442 21.1075 14.5394C21.1501 14.5407 21.1928 14.5419 21.2366 14.5432C21.4096 14.5337 21.5502 14.4925 21.7116 14.2961C21.8656 14.052 21.9898 13.835 22.1056 13.4391C22.1815 13.1102 22.1815 13.1102 22.2168 12.5562C20.5629 12.5083 18.9089 12.4604 17.2048 12.411C17.2048 12.3152 17.2048 12.2193 17.2048 12.1206C17.2422 12.044 17.2422 12.044 17.2804 11.9658C17.3968 11.7273 17.5132 11.4884 17.6295 11.2494C17.6883 11.129 17.6883 11.129 17.7484 11.0061C17.9685 10.5537 18.186 10.0925 18.4013 9.61944C18.4482 9.51638 18.4951 9.41332 18.5435 9.30714C18.5788 9.2294 18.6142 9.15166 18.6506 9.07156Z" fill="#D63E36"/>
<path d="M25.5421 9.07129C27.4347 9.07129 29.3272 9.07129 31.2771 9.07129C31.2612 9.21503 31.2453 9.35877 31.2289 9.50687C31.1105 9.77638 30.992 10.0455 30.8735 10.3145C30.8407 10.3891 30.808 10.4637 30.7743 10.5405C30.5119 11.1351 30.2453 11.6974 29.9759 12.2655C29.133 12.2655 28.2901 12.2655 27.4217 12.2655C27.4217 12.3613 27.4217 12.4572 27.4217 12.5559C27.4853 12.6517 27.5489 12.7476 27.6144 12.8463C27.6621 13.1338 27.6621 13.1338 27.7108 13.4271C27.6954 13.5056 27.6799 13.5841 27.664 13.665C27.3514 15.255 27.0402 16.8475 26.7319 18.4453C26.0779 21.8313 26.0779 21.8314 25.9759 22.1386C25.5624 22.1386 25.1489 22.1386 24.7229 22.1386C24.7702 21.425 24.8497 20.9565 24.9729 20.3509C25.0168 20.1307 25.0606 19.9105 25.1045 19.6902C25.1283 19.571 25.1521 19.4519 25.1766 19.3291C25.3166 18.6238 25.4532 17.9125 25.5903 17.2021C25.7936 16.1514 25.9971 15.1013 26.2018 14.0532C26.2209 13.955 26.2401 13.8569 26.2599 13.7557C26.3572 13.2576 26.4555 12.7612 26.5542 12.2655C25.6954 12.2655 24.8366 12.2655 23.9518 12.2655C24.1053 11.803 24.2148 11.5292 24.3957 11.2038C24.4438 11.1166 24.4918 11.0294 24.5414 10.9395C24.5913 10.85 24.6413 10.7606 24.6927 10.6684C24.7915 10.4901 24.8903 10.3116 24.9891 10.133C25.0328 10.0546 25.0764 9.97617 25.1215 9.89537C25.264 9.63168 25.403 9.35081 25.5421 9.07129Z" fill="#D63E37"/>
<path d="M2.45783 14.5879C4.47759 14.5879 6.49735 14.5879 8.57831 14.5879C8.40851 14.9716 8.24118 15.2658 8.05346 15.5538C8.0055 15.6281 8.0055 15.6281 7.95658 15.704C7.85467 15.8618 7.75264 16.0189 7.6506 16.1759C7.58276 16.2809 7.51493 16.3859 7.4471 16.491C7.08805 17.0465 7.08805 17.0465 6.97983 17.2078C6.89101 17.3421 6.89101 17.3421 6.8094 17.5072C6.70874 17.6914 6.61847 17.8182 6.50602 17.9273C6.26081 18.0109 6.01687 18.0083 5.77052 18.0056C5.69925 18.007 5.62799 18.0088 5.55673 18.0108C5.37008 18.0154 5.18345 18.017 4.99679 18.0176C4.6976 18.0188 4.39842 18.024 4.09923 18.031C3.99509 18.0328 3.89096 18.0327 3.78682 18.0324C3.69174 18.0339 3.69174 18.0339 3.59475 18.0354C3.53909 18.0356 3.48342 18.0358 3.42607 18.036C3.25712 18.0552 3.25712 18.0552 3.03614 18.3629C2.8453 19.2732 2.65446 20.1836 2.45783 21.1215C1.95755 21.7675 0.958396 22.1748 0.958396 22.1748C0.958396 22.1748 0.319444 22.1656 0 22.1379C0.137708 21.8041 0.270267 21.5802 0.432982 21.3739C0.478021 21.3164 0.523061 21.2588 0.569465 21.1995C0.639448 21.1115 0.639448 21.1115 0.710843 21.0217C0.758244 20.9614 0.805644 20.901 0.85448 20.8388C0.971162 20.6904 1.08794 20.5426 1.20482 20.3956C1.46164 19.2425 1.71646 18.0859 1.96687 16.92C1.98823 16.8207 2.00959 16.7213 2.03159 16.6189C2.17586 15.9457 2.31684 15.2675 2.45783 14.5879Z" fill="#F2E9E9"/>
<path d="M4.48194 9.07129C6.21543 9.07129 7.94893 9.07129 9.73495 9.07129C9.62997 9.59844 9.57241 9.88484 9.43375 10.2782C9.20848 10.9367 8.99368 11.6226 8.81929 12.4107C6.84724 12.4107 4.87519 12.4107 2.84338 12.4107C2.9886 11.9732 3.07965 11.7238 3.24888 11.4278C3.28957 11.3557 3.33026 11.2835 3.37219 11.2092C3.43546 11.0987 3.43546 11.0987 3.50001 10.986C3.84009 10.39 4.15816 9.7541 4.48194 9.07129Z" fill="#F2E9E9"/>
</svg>
