<svg width="225" height="225" viewBox="0 0 225 225" fill="none" xmlns="http://www.w3.org/2000/svg">
<circle cx="112.5" cy="112.5" r="112.5" fill="black"/>
<g clip-path="url(#clip0_36_25)">
<path d="M105 202C82.6171 200.032 61.7803 189.698 46.6004 173.037C31.4206 156.376 23 134.598 23 112C23 89.4016 31.4206 67.6237 46.6004 50.9629C61.7803 34.3021 82.6171 23.9682 105 22" stroke="white" stroke-width="20"/>
<path d="M120.848 22.342C143.275 24.3028 164.153 34.5974 179.363 51.1949C194.572 67.7924 203.009 89.4875 203.009 112C203.009 134.513 194.572 156.208 179.363 172.805C164.153 189.403 143.275 199.697 120.848 201.658" stroke="white" stroke-width="20"/>
<path d="M129.708 160V123.904H97.3235V160H79.6595V72.96H97.3235V108.544H129.708V72.96H147.372V160H129.708Z" fill="white"/>
</g>
<defs>
<clipPath id="clip0_36_25">
<rect width="200" height="200" fill="white" transform="translate(13 12)"/>
</clipPath>
</defs>
</svg>
