<svg width="225" height="225" viewBox="0 0 225 225" fill="none" xmlns="http://www.w3.org/2000/svg">
<circle cx="112.5" cy="112.5" r="112.5" fill="black"/>
<g clip-path="url(#clip0_36_23)">
<path d="M105 202C82.6171 200.032 61.7803 189.698 46.6004 173.037C31.4206 156.376 23 134.598 23 112C23 89.4016 31.4206 67.6237 46.6004 50.9629C61.7803 34.3021 82.6171 23.9682 105 22" stroke="#FF0000" stroke-width="20"/>
<path d="M120.848 22.342C143.275 24.3028 164.153 34.5974 179.363 51.1949C194.572 67.7924 203.009 89.4875 203.009 112C203.009 134.513 194.572 156.208 179.363 172.805C164.153 189.403 143.275 199.697 120.848 201.658" stroke="#FF0000" stroke-width="20"/>
<path d="M114.412 86.784C105.11 86.784 100.46 89.856 100.46 96C100.46 98.7307 101.612 100.821 103.916 102.272C106.22 103.723 111.596 105.813 120.044 108.544C128.577 111.275 134.55 114.389 137.964 117.888C141.377 121.301 143.084 126.592 143.084 133.76C143.084 142.891 140.31 149.803 134.764 154.496C129.217 159.189 121.964 161.536 113.004 161.536C106.348 161.536 98.1982 160.512 88.5555 158.464L83.9475 157.568L85.7395 143.872C97.1742 145.408 105.921 146.176 111.979 146.176C121.025 146.176 125.548 142.421 125.548 134.912C125.548 132.181 124.481 130.048 122.348 128.512C120.3 126.976 116.161 125.312 109.932 123.52C100.033 120.704 93.0355 117.376 88.9395 113.536C84.9288 109.611 82.9235 104.192 82.9235 97.28C82.9235 88.576 85.5688 82.0907 90.8595 77.824C96.1502 73.5573 103.404 71.424 112.62 71.424C118.934 71.424 126.956 72.2773 136.684 73.984L141.292 74.88L139.884 88.832C127.852 87.4667 119.361 86.784 114.412 86.784Z" fill="white"/>
</g>
<defs>
<clipPath id="clip0_36_23">
<rect width="200" height="200" fill="white" transform="translate(13 12)"/>
</clipPath>
</defs>
</svg>
