<svg width="225" height="225" viewBox="0 0 225 225" fill="none" xmlns="http://www.w3.org/2000/svg">
<circle cx="112.5" cy="112.5" r="112.5" fill="black"/>
<g clip-path="url(#clip0_42_2)">
<path d="M105 202C82.6171 200.032 61.7803 189.698 46.6004 173.037C31.4206 156.376 23 134.598 23 112C23 89.4016 31.4206 67.6237 46.6004 50.9629C61.7803 34.3021 82.6171 23.9682 105 22" stroke="#9D9D9D" stroke-width="20"/>
<path d="M120.848 22.3418C143.275 24.3025 164.153 34.5971 179.363 51.1947C194.572 67.7922 203.009 89.4873 203.009 112C203.009 134.512 194.572 156.207 179.363 172.805C164.153 189.402 143.275 199.697 120.848 201.658" stroke="#9D9D9D" stroke-width="20"/>
<path d="M112.199 71.424C120.391 71.424 126.535 73.088 130.631 76.416C134.812 79.744 136.903 84.736 136.903 91.392C136.903 98.048 136.22 102.912 134.855 105.984C133.575 108.971 130.801 112.085 126.535 115.328C122.268 118.485 119.58 120.917 118.471 122.624C117.361 124.331 116.807 126.208 116.807 128.256V132.224H103.111C100.465 129.323 99.1425 125.44 99.1425 120.576C99.1425 117.504 101.831 113.792 107.207 109.44C112.668 105.088 115.996 102.101 117.191 100.48C118.471 98.7733 119.111 96.7253 119.111 94.336C119.111 89.3013 115.484 86.784 108.231 86.784C103.111 86.784 97.8625 87.296 92.4865 88.32L89.7985 88.832L88.9025 75.904C96.2412 72.9173 104.007 71.424 112.199 71.424ZM100.295 160V139.392H118.727V160H100.295Z" fill="white"/>
</g>
<defs>
<clipPath id="clip0_42_2">
<rect width="200" height="200" fill="white" transform="translate(13 12)"/>
</clipPath>
</defs>
</svg>
